<svg width="155" height="155" viewBox="0 0 155 155" fill="none" xmlns="http://www.w3.org/2000/svg">
<path d="M101.432 136.276H53.5679C37.9439 136.276 25.2339 123.566 25.2339 107.942V47.1201C25.2339 31.4961 37.9439 18.7861 53.5679 18.7861H101.432C117.056 18.7861 129.766 31.4961 129.766 47.1201V107.88C129.766 123.566 117.056 136.276 101.432 136.276ZM53.5679 26.1641C42.0359 26.1641 32.6739 35.5261 32.6739 47.0581V107.88C32.6739 119.412 42.0359 128.774 53.5679 128.774H101.432C112.964 128.774 122.326 119.412 122.326 107.88V47.1201C122.326 35.5881 112.964 26.2261 101.432 26.2261H53.5679V26.1641Z" fill="white"/>
<path d="M63.116 60.0782C56.296 60.0782 51.584 55.4282 51.584 48.6702C51.584 41.9742 56.358 37.3242 63.178 37.3242C68.882 37.3242 75.082 40.5482 80.228 46.1902C81.53 47.6162 81.53 49.7862 80.228 51.2122C74.958 56.7922 68.758 60.0782 63.116 60.0782ZM63.116 44.7022C60.388 44.7022 58.962 46.0042 58.962 48.6702C58.962 51.9562 61.194 52.6382 63.054 52.6382C65.782 52.6382 69.006 51.2122 72.044 48.6702C69.068 46.1902 65.844 44.7022 63.116 44.7022Z" fill="white"/>
<path d="M91.8839 60.0782C86.1799 60.0782 79.9799 56.8542 74.8339 51.2122C73.5319 49.7862 73.5319 47.6162 74.8339 46.1902C80.0419 40.5482 86.2419 37.2622 91.8839 37.2622C98.7039 37.2622 103.416 41.9742 103.416 48.6702C103.416 52.0802 102.238 54.9322 100.068 57.0402C97.9599 59.0242 95.1699 60.0782 91.8839 60.0782ZM82.9559 48.7322C85.9939 51.2742 89.1559 52.7002 91.8839 52.7002C92.8139 52.7002 94.1159 52.5142 94.9839 51.7082C95.6659 51.0882 96.0379 50.0962 96.0379 48.7322C96.0379 45.4462 93.8059 44.7642 91.9459 44.7642C89.1559 44.7022 85.9939 46.1902 82.9559 48.7322Z" fill="white"/>
<path d="M96.41 80.5381H57.97C55.924 80.5381 54.25 78.8641 54.25 76.8181C54.25 74.7721 55.924 73.0981 57.97 73.0981H96.41C98.456 73.0981 100.13 74.7721 100.13 76.8181C100.13 78.8641 98.456 80.5381 96.41 80.5381Z" fill="white"/>
<path d="M96.41 94.178H57.97C55.924 94.178 54.25 92.504 54.25 90.458C54.25 88.412 55.924 86.738 57.97 86.738H96.41C98.456 86.738 100.13 88.412 100.13 90.458C100.13 92.504 98.456 94.178 96.41 94.178Z" fill="white"/>
<path d="M93.3723 115.63H61.6283C59.7683 115.63 58.2803 114.142 58.2803 112.282V108.066C58.2803 106.206 59.7683 104.718 61.6283 104.718H93.3103C95.1703 104.718 96.6583 106.206 96.6583 108.066V112.282C96.7203 114.142 95.2323 115.63 93.3723 115.63Z" fill="white"/>
<path d="M93.3721 119.35H61.6281C57.7221 119.35 54.5601 116.188 54.5601 112.282V108.066C54.5601 104.16 57.7221 100.998 61.6281 100.998H93.3101C97.2161 100.998 100.378 104.16 100.378 108.066V112.282C100.44 116.188 97.2781 119.35 93.3721 119.35ZM62.0001 111.91H93.0001V108.438H62.0001V111.91Z" fill="white"/>
</svg>
