<svg width="155" height="155" viewBox="0 0 155 155" fill="none" xmlns="http://www.w3.org/2000/svg">
<path d="M62.62 135.904C60.574 135.904 58.9 134.23 58.9 132.184V113.894C58.9 110.67 56.234 108.004 53.01 108.004H33.79C26.412 108.004 20.46 102.052 20.46 94.6738V68.0138C20.46 60.6358 26.412 54.6838 33.79 54.6838C41.168 54.6838 47.12 60.6978 47.12 68.0138V88.7838C47.12 90.8298 45.446 92.5038 43.4 92.5038C41.354 92.5038 39.68 90.8298 39.68 88.7838V68.0138C39.68 64.7898 37.014 62.1238 33.79 62.1238C30.566 62.1238 27.9 64.7898 27.9 68.0138V94.6738C27.9 97.8978 30.566 100.564 33.79 100.564H53.01C60.388 100.564 66.34 106.516 66.34 113.894V132.184C66.34 134.292 64.666 135.904 62.62 135.904Z" fill="white"/>
<path d="M92.3802 135.904C90.3342 135.904 88.6602 134.23 88.6602 132.184V113.894C88.6602 106.516 94.6122 100.564 101.99 100.564H121.21C124.434 100.564 127.1 97.8978 127.1 94.6738V68.0138C127.1 64.7898 124.434 62.1238 121.21 62.1238C117.986 62.1238 115.32 64.7898 115.32 68.0138V88.7838C115.32 90.8298 113.646 92.5038 111.6 92.5038C109.554 92.5038 107.88 90.8298 107.88 88.7838V68.0138C107.88 60.6358 113.832 54.6838 121.21 54.6838C128.588 54.6838 134.54 60.6358 134.54 68.0138V94.6738C134.54 102.052 128.588 108.004 121.21 108.004H101.99C98.7662 108.004 96.1002 110.67 96.1002 113.894V132.184C96.1002 134.292 94.4262 135.904 92.3802 135.904Z" fill="white"/>
<path d="M77.4998 135.904C75.4538 135.904 73.7798 134.23 73.7798 132.184V84.4439C73.7798 82.3979 75.4538 80.7239 77.4998 80.7239C79.5458 80.7239 81.2198 82.3979 81.2198 84.4439V132.184C81.2198 134.292 79.5458 135.904 77.4998 135.904Z" fill="white"/>
<path d="M94.8599 88.1639H60.1399C58.0939 88.1639 56.4199 86.4899 56.4199 84.4439C56.4199 82.3979 58.0939 80.7239 60.1399 80.7239H94.8599C96.9059 80.7239 98.5799 82.3979 98.5799 84.4439C98.5799 86.4899 96.9059 88.1639 94.8599 88.1639Z" fill="white"/>
<path d="M33.79 45.6939C26.412 45.6939 20.46 39.7419 20.46 32.3639C20.46 24.9859 26.412 19.0339 33.79 19.0339C41.168 19.0339 47.12 25.0479 47.12 32.3639C47.12 39.6799 41.168 45.6939 33.79 45.6939ZM33.79 26.4739C30.566 26.4739 27.9 29.1399 27.9 32.3639C27.9 35.5879 30.566 38.2539 33.79 38.2539C37.014 38.2539 39.68 35.5879 39.68 32.3639C39.68 29.1399 37.014 26.4739 33.79 26.4739Z" fill="white"/>
<path d="M121.21 45.6939C113.832 45.6939 107.88 39.7419 107.88 32.3639C107.88 24.9859 113.832 19.0339 121.21 19.0339C128.588 19.0339 134.54 25.0479 134.54 32.3639C134.54 39.6799 128.588 45.6939 121.21 45.6939ZM121.21 26.4739C117.986 26.4739 115.32 29.1399 115.32 32.3639C115.32 35.5879 117.986 38.2539 121.21 38.2539C124.434 38.2539 127.1 35.5879 127.1 32.3639C127.1 29.1399 124.434 26.4739 121.21 26.4739Z" fill="white"/>
<path d="M75.5159 73.5319C74.3999 73.5319 73.2839 73.0359 72.6019 72.1059L63.6739 60.6979C62.4339 59.0859 62.6819 56.7299 64.2939 55.4899C65.9059 54.2499 68.2619 54.4979 69.5019 56.1099L75.2679 63.4879L88.2879 44.4539C89.4659 42.7799 91.7599 42.3459 93.4339 43.4619C95.1079 44.6399 95.5419 46.9339 94.4259 48.6079L78.6159 71.9199C77.9339 72.9119 76.8799 73.4699 75.6399 73.5319C75.6399 73.5319 75.5779 73.5319 75.5159 73.5319Z" fill="white"/>
</svg>
