<svg width="155" height="155" viewBox="0 0 155 155" fill="none" xmlns="http://www.w3.org/2000/svg">
<path d="M100.316 55.738C98.2697 55.738 96.5957 54.064 96.5957 52.018V35.898C96.5957 33.852 98.2697 32.178 100.316 32.178C102.362 32.178 104.036 33.852 104.036 35.898V52.018C104.036 54.064 102.362 55.738 100.316 55.738Z" fill="white"/>
<path d="M109.616 52.018C107.57 52.018 105.896 50.344 105.896 48.298V35.898C105.896 33.852 107.57 32.178 109.616 32.178C111.662 32.178 113.336 33.852 113.336 35.898V48.298C113.336 50.344 111.662 52.018 109.616 52.018Z" fill="white"/>
<path d="M50.5299 109.926C54.5704 109.926 57.8459 106.65 57.8459 102.61C57.8459 98.5694 54.5704 95.2939 50.5299 95.2939C46.4894 95.2939 43.2139 98.5694 43.2139 102.61C43.2139 106.65 46.4894 109.926 50.5299 109.926Z" fill="white"/>
<path d="M50.5298 136.09C48.4838 136.09 46.8098 134.416 46.8098 132.37C46.8098 125.736 43.6478 123.132 39.6178 119.784C35.4018 116.25 30.1938 111.91 30.1938 102.61C30.1938 93.806 34.3478 87.11 41.5398 84.134C43.4618 83.328 45.6318 84.258 46.3758 86.18C47.1818 88.102 46.2518 90.272 44.3298 91.016C38.7498 93.31 37.5718 98.58 37.5718 102.61C37.5718 108.438 40.4238 110.794 44.3298 114.08C45.1358 114.7 45.9418 115.382 46.7478 116.126V102.61C46.7478 100.564 48.4218 98.89 50.4678 98.89C52.5138 98.89 54.1878 100.564 54.1878 102.61V132.37C54.2498 134.416 52.5758 136.09 50.5298 136.09Z" fill="white"/>
<path d="M50.5296 136.09C48.4836 136.09 46.8096 134.416 46.8096 132.37C46.8096 122.264 52.2656 117.738 56.6676 114.018C60.5736 110.732 63.4256 108.376 63.4256 102.61C63.4256 98.58 62.2476 93.31 56.6676 91.016C54.7456 90.21 53.8776 88.04 54.6216 86.18C55.4276 84.258 57.5976 83.39 59.4576 84.134C66.7116 87.11 70.8656 93.868 70.8656 102.61C70.8656 111.91 65.5956 116.25 61.3796 119.784C57.3496 123.132 54.1876 125.798 54.1876 132.37C54.2496 134.416 52.5756 136.09 50.5296 136.09Z" fill="white"/>
<path d="M58.2178 91.264C56.7298 91.264 55.3658 90.396 54.8078 88.97C54.0018 87.048 54.9318 84.878 56.8538 84.134C62.4338 81.84 63.6118 76.508 63.6118 72.416V37.448C63.6118 31.496 58.7758 26.66 52.8238 26.66H48.3598C48.3598 26.66 48.3598 26.66 48.2978 26.66C45.4458 26.66 42.7178 27.776 40.6718 29.822C38.6258 31.868 37.5098 34.596 37.5098 37.448V72.292C37.5098 78.12 39.9278 82.274 44.2678 84.072C46.1898 84.878 47.0578 87.048 46.3138 88.908C45.5078 90.83 43.3378 91.698 41.4778 90.954C34.2238 88.04 30.0698 81.22 30.0698 72.292V37.448C30.0698 32.55 31.9918 27.962 35.4638 24.552C38.8738 21.08 43.4618 19.22 48.2978 19.22H48.3598H52.8238C62.8678 19.282 70.9898 27.466 70.9898 37.448V72.416C70.9898 81.22 66.8358 88.04 59.6438 91.016C59.1478 91.202 58.6518 91.264 58.2178 91.264Z" fill="white"/>
<path d="M50.716 43.3379H34.596C32.55 43.3379 30.876 41.6639 30.876 39.6179C30.876 37.5719 32.55 35.8979 34.596 35.8979H50.716C52.762 35.8979 54.436 37.5719 54.436 39.6179C54.436 41.6639 52.762 43.3379 50.716 43.3379Z" fill="white"/>
<path d="M50.716 55.7379H34.596C32.55 55.7379 30.876 54.0639 30.876 52.0179C30.876 49.9719 32.55 48.2979 34.596 48.2979H50.716C52.762 48.2979 54.436 49.9719 54.436 52.0179C54.436 54.0639 52.762 55.7379 50.716 55.7379Z" fill="white"/>
<path d="M91.0159 52.018C88.9699 52.018 87.2959 50.344 87.2959 48.298V35.898C87.2959 33.852 88.9699 32.178 91.0159 32.178C93.0619 32.178 94.7359 33.852 94.7359 35.898V48.298C94.7359 50.344 93.0619 52.018 91.0159 52.018Z" fill="white"/>
<path d="M50.716 75.5779H34.596C32.55 75.5779 30.876 73.9039 30.876 71.8579C30.876 69.8119 32.55 68.1379 34.596 68.1379H50.716C52.762 68.1379 54.436 69.8119 54.436 71.8579C54.436 73.9039 52.762 75.5779 50.716 75.5779Z" fill="white"/>
<path d="M100.13 136.09C93.9921 136.09 88.9701 131.068 88.9701 124.93V69.3779C88.9701 67.9519 88.2881 66.6499 87.0481 65.8439L82.5221 62.8679C77.9961 59.8919 75.2681 54.8699 75.2681 49.4139V32.6739C75.2681 25.1099 81.4061 18.9099 89.0321 18.9099H111.166C118.73 18.9099 124.93 25.0479 124.93 32.6739V49.4759C124.93 54.8699 122.202 59.8919 117.676 62.9299L113.15 65.9059C111.972 66.7119 111.228 68.0139 111.228 69.4399V124.992C111.29 131.068 106.268 136.09 100.13 136.09ZM89.0941 26.3499C85.6221 26.3499 82.7701 29.2019 82.7701 32.6739V49.4759C82.7701 52.3899 84.1961 55.1179 86.6761 56.6679L91.2021 59.6439C94.4881 61.8139 96.4721 65.4719 96.4721 69.3779V124.93C96.4721 126.976 98.1461 128.65 100.192 128.65C102.238 128.65 103.912 126.976 103.912 124.93V69.3779C103.912 65.4099 105.896 61.8139 109.182 59.6439L113.708 56.6679C116.126 55.0559 117.614 52.3899 117.614 49.4759V32.6739C117.614 29.2019 114.762 26.3499 111.29 26.3499H89.0941Z" fill="white"/>
</svg>
