<svg width="150" height="108" viewBox="0 0 150 108" fill="none" xmlns="http://www.w3.org/2000/svg">
<path d="M148.794 0C148.553 0 148.312 0 148.071 0C97.9037 0 58.3492 12.8859 33.7482 37.4497C16.3828 54.8456 7.1373 77.5571 6.89612 103.329L2.23318 96.4027C1.8312 95.8389 1.10765 95.6779 0.544877 96.0806C-0.017891 96.4832 -0.178682 97.2081 0.223295 97.7718L6.57453 107.114C6.97651 107.678 7.53928 108 8.18244 108C8.82561 108 9.46877 107.678 9.79035 107.114L16.4632 97.2886C16.8652 96.7248 16.7044 96 16.1416 95.5973C15.5788 95.1946 14.8553 95.3557 14.4533 95.9195L9.22759 103.57C9.46877 78.3624 18.5535 56.1342 35.5169 39.2215C59.6355 15.1409 98.5469 2.49664 148.071 2.49664C148.312 2.49664 148.553 2.49664 148.794 2.49664C149.437 2.49664 150 1.93289 150 1.28859C150 0.563758 149.518 0 148.794 0Z" fill="white"/>
</svg>
