<svg width="155" height="155" viewBox="0 0 155 155" fill="none" xmlns="http://www.w3.org/2000/svg">
<path d="M77.8718 48.484C69.9358 48.484 63.4258 42.036 63.4258 34.038C63.4258 26.04 69.8738 19.592 77.8718 19.592C85.8698 19.592 92.3178 26.04 92.3178 34.038C92.3178 42.036 85.8078 48.484 77.8718 48.484ZM77.8718 27.032C74.0278 27.032 70.8658 30.194 70.8658 34.038C70.8658 37.882 74.0278 41.044 77.8718 41.044C81.7158 41.044 84.8778 37.882 84.8778 34.038C84.8778 30.194 81.7158 27.032 77.8718 27.032Z" fill="white"/>
<path d="M122.388 92.9999C120.342 92.9999 118.668 91.3259 118.668 89.2799C118.668 66.7739 100.378 48.4219 77.8097 48.4219C55.2417 48.4219 37.0137 66.7739 37.0137 89.2799C37.0137 91.3259 35.3397 92.9999 33.2937 92.9999C31.2477 92.9999 29.5737 91.3259 29.5737 89.2799C29.5737 62.6819 51.2117 40.9819 77.8717 40.9819C104.47 40.9819 126.17 62.6199 126.17 89.2799C126.108 91.3259 124.434 92.9999 122.388 92.9999Z" fill="white"/>
<path d="M139.314 94.054H15.6858C13.6398 94.054 11.9658 92.38 11.9658 90.334C11.9658 88.288 13.6398 86.614 15.6858 86.614H139.314C141.36 86.614 143.034 88.288 143.034 90.334C143.034 92.38 141.36 94.054 139.314 94.054Z" fill="white"/>
<path d="M27.1558 135.408C26.3498 135.408 25.4818 135.16 24.7998 134.602C23.1878 133.3 22.9398 131.006 24.2418 129.394L38.9358 110.732C42.2838 106.392 47.6158 103.974 53.1338 104.346L75.3298 105.772C79.1118 106.02 82.8318 105.524 86.4278 104.346L87.3578 104.036C89.3418 103.416 91.3878 104.47 92.0698 106.392C92.6898 108.314 91.6358 110.422 89.7138 111.104L88.7838 111.414C84.2578 112.902 79.6078 113.46 74.8958 113.15L52.6998 111.724C49.6618 111.538 46.6858 112.84 44.8258 115.258L44.3918 115.816C54.0018 114.08 67.1458 115.072 82.8938 120.528L113.274 104.904C115.072 103.974 117.366 104.656 118.296 106.516C119.226 108.314 118.544 110.608 116.684 111.538L84.8778 127.906C83.9478 128.402 82.8938 128.464 81.9018 128.092C55.6138 118.544 39.1838 123.008 35.0298 128.03L30.0698 134.044C29.3258 134.912 28.2718 135.408 27.1558 135.408Z" fill="white"/>
<path d="M55.0556 108.438L85.0016 121.148L41.9116 116.994L49.4756 108.438H55.0556Z" fill="white"/>
</svg>
